<?xml version="1.0" encoding="UTF-8" standalone="no"?>
<svg width="31px" height="31px" viewBox="0 0 31 31" version="1.1" xmlns="http://www.w3.org/2000/svg" xmlns:xlink="http://www.w3.org/1999/xlink" xmlns:sketch="http://www.bohemiancoding.com/sketch/ns">
    <!-- Generator: Sketch 3.3.1 (12005) - http://www.bohemiancoding.com/sketch -->
    <title>Shape</title>
    <desc>Created with Sketch.</desc>
    <defs></defs>
    <g id="Page-1" stroke="none" stroke-width="1" fill="none" fill-rule="evenodd" sketch:type="MSPage">
        <path d="M30,26 L22.215,18.215 C23.326,16.401 24,14.286 24,12 C24,5.374 18.625,0 12,0 C5.375,0 0,5.374 0,12 C0,18.625 5.374,24 12,24 C14.286,24 16.4,23.326 18.215,22.219 L26,30 C26.547,30.547 27.453,30.543 28,30 L30,28 C30.547,27.453 30.547,26.547 30,26 L30,26 Z M12,20 C7.582,20 4,16.418 4,12 C4,7.582 7.582,4 12,4 C16.418,4 20,7.582 20,12 C20,16.418 16.418,20 12,20 L12,20 Z" id="Shape" fill="#F2F2F2" sketch:type="MSShapeGroup"></path>
    </g>
</svg>